<svg width="25" height="17" viewBox="0 0 25 17" fill="none" xmlns="http://www.w3.org/2000/svg">
<g opacity="0.5">
<path d="M21.5546 6.66666C22.2687 6.66666 22.8476 7.26361 22.8476 7.99999C22.8476 8.68377 22.3484 9.24733 21.7054 9.32435L21.5546 9.33332H2.15621C1.44215 9.33332 0.863281 8.73637 0.863281 7.99999C0.863281 7.31621 1.3624 6.75265 2.00543 6.67563L2.15621 6.66666H21.5546Z" fill="#101524"/>
<path d="M15.4642 0.390524C15.9303 -0.090121 16.6637 -0.127094 17.1709 0.279606L17.2927 0.390524L23.7664 7.06651C24.2713 7.58721 24.2713 8.43143 23.7664 8.95213C23.3003 9.43277 22.5669 9.46975 22.0597 9.06305L21.9379 8.95213L15.4642 2.27614C14.9593 1.75544 14.9593 0.911223 15.4642 0.390524Z" fill="#101524"/>
<path d="M23.7174 7.05385C23.2497 6.57491 22.5162 6.54061 22.0104 6.94916L21.889 7.06052L15.461 13.7365C14.9578 14.2591 14.9607 15.1033 15.4674 15.6221C15.9352 16.1011 16.6687 16.1354 17.1745 15.7268L17.2959 15.6154L23.7239 8.93946C24.2271 8.41692 24.2242 7.5727 23.7174 7.05385Z" fill="#101524"/>
</g>
</svg>
