<svg width="25" height="17" viewBox="0 0 25 17" fill="none" xmlns="http://www.w3.org/2000/svg">
<g opacity="0.5">
<path d="M3.3431 6.66666C2.62904 6.66666 2.05017 7.26361 2.05017 7.99999C2.05017 8.68377 2.54929 9.24733 3.19232 9.32435L3.3431 9.33332H22.7415C23.4556 9.33332 24.0345 8.73637 24.0345 7.99999C24.0345 7.31621 23.5353 6.75265 22.8923 6.67563L22.7415 6.66666H3.3431Z" fill="#101524"/>
<path d="M9.43354 0.390524C8.96745 -0.090121 8.23406 -0.127094 7.72686 0.279606L7.60506 0.390524L1.13137 7.06651C0.626451 7.58721 0.626451 8.43143 1.13137 8.95213C1.59745 9.43277 2.33084 9.46975 2.83805 9.06305L2.95985 8.95213L9.43354 2.27614C9.93846 1.75544 9.93846 0.911223 9.43354 0.390524Z" fill="#101524"/>
<path d="M1.18029 7.05385C1.64801 6.57491 2.38153 6.54061 2.88733 6.94916L3.00875 7.06052L9.43677 13.7365C9.9399 14.2591 9.93701 15.1033 9.4303 15.6221C8.96257 16.1011 8.22906 16.1354 7.72326 15.7268L7.60183 15.6154L1.17382 8.93946C0.670685 8.41692 0.673583 7.5727 1.18029 7.05385Z" fill="#101524"/>
</g>
</svg>
