<svg width="73" height="65" viewBox="0 0 73 65" fill="none" xmlns="http://www.w3.org/2000/svg">
<ellipse cx="25.3108" cy="35.3225" rx="4.1965" ry="4.1965" fill="#101524"/>
<path fill-rule="evenodd" clip-rule="evenodd" d="M65.4896 24.7226C67.199 25.3461 68.9602 25.9885 70.7638 25.6759C72.7803 25.3489 74.0338 26.7659 71.7993 29.3274C69.777 31.6867 67.7015 32.3657 65.7937 32.9899C63.3826 33.7787 61.2393 34.48 59.8093 38.3744C59.2643 40.7724 58.0653 45.3504 56.0488 49.9829C54.3593 53.9614 52.3973 57.1769 50.2718 59.5204C47.2743 62.7904 43.8408 64.4799 40.1893 64.4799C31.7418 64.4799 28.3628 57.6129 26.3463 53.0349C26.1283 52.6534 26.3463 52.1084 26.7823 51.9449L31.0333 50.0919C31.4148 49.9284 31.9598 50.0919 32.1233 50.5279C34.4668 55.8144 36.2653 58.1579 40.1348 58.1579C44.8763 58.1579 48.4733 51.4544 50.1628 47.4759C50.2718 47.2034 50.3808 46.9445 50.4898 46.6856C50.5988 46.4267 50.7078 46.1679 50.8168 45.8954C50.3808 45.9499 49.8903 46.0044 49.4543 46.0044C43.5683 46.0044 38.7723 41.1539 38.7723 35.2679C38.7723 29.3819 43.5683 24.5859 49.4543 24.5859C51.8523 24.5859 54.0868 25.4034 55.8308 26.7114C55.9015 26.6642 56.0182 26.5839 56.1758 26.4754C56.7467 26.0823 57.8549 25.3193 59.2643 24.4224C61.2437 23.1738 63.3251 23.9331 65.4896 24.7226ZM49.4548 30.9624C47.0568 30.9624 45.0948 32.9244 45.0948 35.3224C45.0948 37.7204 47.0568 39.6824 49.4548 39.6824C51.8528 39.6824 53.8148 37.7204 53.8148 35.3224C53.8148 32.9244 51.8528 30.9624 49.4548 30.9624Z" fill="#101524"/>
</svg>
