<svg width="16" height="17" viewBox="0 0 16 17" fill="none" xmlns="http://www.w3.org/2000/svg">
<path d="M11.3333 1.54614H4.66668C2.82573 1.54614 1.33334 3.03853 1.33334 4.87948V11.5461C1.33334 13.3871 2.82573 14.8795 4.66668 14.8795H11.3333C13.1743 14.8795 14.6667 13.3871 14.6667 11.5461V4.87948C14.6667 3.03853 13.1743 1.54614 11.3333 1.54614Z" stroke="#6AF0D0" stroke-linecap="round" stroke-linejoin="round"/>
<path d="M10.6667 7.79285C10.7489 8.34768 10.6542 8.91433 10.3958 9.41219C10.1375 9.91006 9.72877 10.3138 9.22776 10.566C8.72675 10.8181 8.15897 10.9059 7.6052 10.8168C7.05142 10.7277 6.53985 10.4662 6.14323 10.0696C5.74662 9.67301 5.48516 9.16143 5.39605 8.60766C5.30694 8.05388 5.39472 7.48611 5.64689 6.9851C5.89907 6.48408 6.3028 6.07534 6.80066 5.81701C7.29853 5.55868 7.86518 5.46391 8.42001 5.54618C8.98596 5.6301 9.50991 5.89382 9.91447 6.29839C10.319 6.70295 10.5828 7.2269 10.6667 7.79285Z" stroke="#6AF0D0" stroke-linecap="round" stroke-linejoin="round"/>
<path d="M11.6667 4.54614H11.6725" stroke="#6AF0D0" stroke-linecap="round" stroke-linejoin="round"/>
</svg>
