<svg width="16" height="17" viewBox="0 0 16 17" fill="none" xmlns="http://www.w3.org/2000/svg">
<path d="M10.6667 5.54614C11.7275 5.54614 12.7449 5.96757 13.4951 6.71772C14.2452 7.46786 14.6667 8.48528 14.6667 9.54614V14.2128H12V9.54614C12 9.19252 11.8595 8.85338 11.6095 8.60333C11.3594 8.35329 11.0203 8.21281 10.6667 8.21281C10.313 8.21281 9.9739 8.35329 9.72385 8.60333C9.4738 8.85338 9.33332 9.19252 9.33332 9.54614V14.2128H6.66666V9.54614C6.66666 8.48528 7.08808 7.46786 7.83823 6.71772C8.58838 5.96757 9.60579 5.54614 10.6667 5.54614V5.54614Z" stroke="#6AF0D0" stroke-linecap="round" stroke-linejoin="round"/>
<path d="M4.00001 6.21289H1.33334V14.2129H4.00001V6.21289Z" stroke="#6AF0D0" stroke-linecap="round" stroke-linejoin="round"/>
<path d="M2.66668 4.21281C3.40306 4.21281 4.00001 3.61586 4.00001 2.87948C4.00001 2.1431 3.40306 1.54614 2.66668 1.54614C1.9303 1.54614 1.33334 2.1431 1.33334 2.87948C1.33334 3.61586 1.9303 4.21281 2.66668 4.21281Z" stroke="#6AF0D0" stroke-linecap="round" stroke-linejoin="round"/>
</svg>
