<?xml version="1.0" encoding="UTF-8"?>
<svg id="a" xmlns="http://www.w3.org/2000/svg" viewBox="0 0 301.32 298.12">
    <defs>
    </defs>
    <text class="b" transform="translate(16.42 154.59) rotate(-87.98)">
        <tspan x="0" y="0">D</tspan>
    </text>
    <text class="b" transform="translate(16.88 140.98) rotate(-82.61)">
        <tspan x="0" y="0">A</tspan>
    </text>
    <text class="b" transform="translate(18.55 127.99) rotate(-77.16)">
        <tspan x="0" y="0">R</tspan>
    </text>
    <text class="b" transform="translate(21.48 115.04) rotate(-71.65)">
        <tspan x="0" y="0">R</tspan>
    </text>
    <text class="b" transform="translate(25.68 102.42) rotate(-66.33)">
        <tspan x="0" y="0">E</tspan>
    </text>
    <text class="b" transform="translate(30.58 91.08) rotate(-60.78)">
        <tspan x="0" y="0">N</tspan>
    </text>
    <text class="b" transform="translate(37.79 78.48) rotate(-56.58)">
        <tspan x="0" y="0"> </tspan>
    </text>
    <text class="b" transform="translate(40.9 73.47) rotate(-52.38)">
        <tspan x="0" y="0">H</tspan>
    </text>
    <text class="b" transform="translate(49.72 62.05) rotate(-46.75)">
        <tspan x="0" y="0">A</tspan>
    </text>
    <text class="b" transform="translate(58.71 52.47) rotate(-41.34)">
        <tspan x="0" y="0">R</tspan>
    </text>
    <text class="b" transform="translate(68.66 43.7) rotate(-35.9)">
        <tspan x="0" y="0">K</tspan>
    </text>
    <text class="b" transform="translate(79.37 35.88) rotate(-30.2)">
        <tspan x="0" y="0">N</tspan>
    </text>
    <text class="b" transform="translate(91.91 28.63) rotate(-24.66)">
        <tspan x="0" y="0">E</tspan>
    </text>
    <text class="b" transform="translate(103.12 23.46) rotate(-19.49)">
        <tspan x="0" y="0">S</tspan>
    </text>
    <text class="b" transform="translate(114.97 19.25) rotate(-14.27)">
        <tspan x="0" y="0">S</tspan>
    </text>
    <text class="b" transform="translate(156.28 291.56) rotate(-3.2)">
        <tspan x="0" y="0">D</tspan>
    </text>
    <text class="b" transform="translate(171.3 290.54) rotate(-7.7)">
        <tspan x="0" y="0">I</tspan>
    </text>
    <text class="b" transform="translate(178.11 289.74) rotate(-12.06)">
        <tspan x="0" y="0">R</tspan>
    </text>
    <text class="b" transform="translate(192.27 286.64) rotate(-17.88)">
        <tspan x="0" y="0">E</tspan>
    </text>
    <text class="b" transform="translate(204.96 282.54) rotate(-23.62)">
        <tspan x="0" y="0">C</tspan>
    </text>
    <text class="b" transform="translate(218.26 276.65) rotate(-29.43)">
        <tspan x="0" y="0">T</tspan>
    </text>
    <text class="b" transform="translate(229.68 270.24) rotate(-35.26)">
        <tspan x="0" y="0">O</tspan>
    </text>
    <text class="b" transform="translate(242.49 261.08) rotate(-41.47)">
        <tspan x="0" y="0">R</tspan>
    </text>
    <text class="b" transform="translate(253.05 251.53) rotate(-45.77)">
        <tspan x="0" y="0"> </tspan>
    </text>
    <text class="b" transform="translate(257.91 246.75) rotate(-50.34)">
        <tspan x="0" y="0">O</tspan>
    </text>
    <text class="b" transform="translate(267.87 234.56) rotate(-56.27)">
        <tspan x="0" y="0">F</tspan>
    </text>
    <text class="b" transform="translate(274.74 224.07) rotate(-60.18)">
        <tspan x="0" y="0"> </tspan>
    </text>
    <text class="b" transform="translate(278.26 218.21) rotate(-64.8)">
        <tspan x="0" y="0">O</tspan>
    </text>
    <text class="b" transform="translate(284.88 203.93) rotate(-70.93)">
        <tspan x="0" y="0">P</tspan>
    </text>
    <text class="b" transform="translate(289.34 190.88) rotate(-76.6)">
        <tspan x="0" y="0">E</tspan>
    </text>
    <text class="b" transform="translate(292.45 177.72) rotate(-82.38)">
        <tspan x="0" y="0">R</tspan>
    </text>
    <text class="b" transform="translate(294.32 163.35) rotate(-88.28)">
        <tspan x="0" y="0">A</tspan>
    </text>
    <text class="b" transform="translate(294.72 150.93) rotate(-93.16)">
        <tspan x="0" y="0">T</tspan>
    </text>
    <text class="b" transform="translate(293.85 137.65) rotate(-97.29)">
        <tspan x="0" y="0">I</tspan>
    </text>
    <text class="b" transform="translate(293.11 130.77) rotate(-101.92)">
        <tspan x="0" y="0">O</tspan>
    </text>
    <text class="b" transform="translate(289.79 115.32) rotate(-108.47)">
        <tspan x="0" y="0">N</tspan>
    </text>
    <text class="b" transform="translate(284.72 100.46) rotate(-114.59)">
        <tspan x="0" y="0">S</tspan>
    </text>
</svg>