<svg width="310" height="208" viewBox="0 0 310 208" fill="none" xmlns="http://www.w3.org/2000/svg">
<path d="M1.5 126.542C1.5 174.401 30.6719 207 73.0407 207C107.075 207 136.247 188.273 136.247 148.737C136.247 108.508 102.213 89.7812 69.5679 94.6364C69.5679 60.6498 96.6561 45.3906 138.33 41.9226V1C59.1493 1 1.5 34.9865 1.5 126.542ZM171.67 126.542C171.67 174.401 200.842 207 243.21 207C277.244 207 306.416 188.273 306.416 148.737C306.416 108.508 272.382 89.7812 239.738 94.6364C239.738 60.6498 266.826 45.3906 308.5 41.9226V1C229.319 1 171.67 34.9865 171.67 126.542Z" stroke="#6af0d0" stroke-width="2"/>
</svg>
